<mxfile host="65bd71144e">
    <diagram id="hRHMi6ZP20ivppBZ7xrg" name="Page-1">
        <mxGraphModel dx="1237" dy="821" grid="1" gridSize="10" guides="1" tooltips="1" connect="1" arrows="1" fold="1" page="1" pageScale="1" pageWidth="827" pageHeight="1169" math="0" shadow="0">
            <root>
                <mxCell id="0"/>
                <mxCell id="1" parent="0"/>
                <mxCell id="5" style="edgeStyle=none;html=1;" edge="1" parent="1" source="3" target="4">
                    <mxGeometry relative="1" as="geometry"/>
                </mxCell>
                <mxCell id="3" value="start" style="ellipse;whiteSpace=wrap;html=1;" vertex="1" parent="1">
                    <mxGeometry x="354" y="290" width="120" height="80" as="geometry"/>
                </mxCell>
                <mxCell id="7" value="" style="edgeStyle=none;html=1;" edge="1" parent="1" source="4" target="6">
                    <mxGeometry relative="1" as="geometry"/>
                </mxCell>
                <mxCell id="4" value="input&lt;br&gt;&quot;enter a number&quot; ,&lt;br&gt;n1" style="shape=parallelogram;perimeter=parallelogramPerimeter;whiteSpace=wrap;html=1;fixedSize=1;" vertex="1" parent="1">
                    <mxGeometry x="354" y="440" width="120" height="60" as="geometry"/>
                </mxCell>
                <mxCell id="9" style="edgeStyle=none;html=1;entryX=0.533;entryY=0.167;entryDx=0;entryDy=0;entryPerimeter=0;" edge="1" parent="1" source="6" target="8">
                    <mxGeometry relative="1" as="geometry"/>
                </mxCell>
                <mxCell id="6" value="input&amp;nbsp;&lt;br&gt;&quot;enter a number&quot;&lt;br&gt;n2" style="shape=parallelogram;perimeter=parallelogramPerimeter;whiteSpace=wrap;html=1;fixedSize=1;" vertex="1" parent="1">
                    <mxGeometry x="354" y="580" width="120" height="60" as="geometry"/>
                </mxCell>
                <mxCell id="13" style="edgeStyle=none;html=1;entryX=0.5;entryY=0;entryDx=0;entryDy=0;" edge="1" parent="1" source="8" target="12">
                    <mxGeometry relative="1" as="geometry"/>
                </mxCell>
                <mxCell id="8" value="result = (n1+n2) / 2&amp;nbsp;" style="whiteSpace=wrap;html=1;" vertex="1" parent="1">
                    <mxGeometry x="350" y="700" width="120" height="60" as="geometry"/>
                </mxCell>
                <mxCell id="35" style="edgeStyle=none;html=1;entryX=0.5;entryY=0;entryDx=0;entryDy=0;" edge="1" parent="1" source="12" target="34">
                    <mxGeometry relative="1" as="geometry"/>
                </mxCell>
                <mxCell id="12" value="output : result" style="shape=parallelogram;perimeter=parallelogramPerimeter;whiteSpace=wrap;html=1;fixedSize=1;" vertex="1" parent="1">
                    <mxGeometry x="350" y="820" width="120" height="60" as="geometry"/>
                </mxCell>
                <mxCell id="24" style="edgeStyle=none;html=1;entryX=0.5;entryY=0;entryDx=0;entryDy=0;" edge="1" parent="1" source="21" target="22">
                    <mxGeometry relative="1" as="geometry"/>
                </mxCell>
                <mxCell id="21" value="start" style="ellipse;whiteSpace=wrap;html=1;" vertex="1" parent="1">
                    <mxGeometry x="1180" y="200" width="120" height="80" as="geometry"/>
                </mxCell>
                <mxCell id="25" style="edgeStyle=none;html=1;entryX=0.5;entryY=0;entryDx=0;entryDy=0;" edge="1" parent="1" source="22" target="23">
                    <mxGeometry relative="1" as="geometry"/>
                </mxCell>
                <mxCell id="22" value="input&lt;br&gt;&quot;enter a value&quot;&lt;br&gt;n1" style="shape=parallelogram;perimeter=parallelogramPerimeter;whiteSpace=wrap;html=1;fixedSize=1;" vertex="1" parent="1">
                    <mxGeometry x="1180" y="320" width="120" height="60" as="geometry"/>
                </mxCell>
                <mxCell id="27" value="" style="edgeStyle=none;html=1;" edge="1" parent="1" source="23" target="26">
                    <mxGeometry relative="1" as="geometry"/>
                </mxCell>
                <mxCell id="23" value="input&lt;br&gt;&quot;enter a value&quot;&lt;br&gt;n2" style="shape=parallelogram;perimeter=parallelogramPerimeter;whiteSpace=wrap;html=1;fixedSize=1;" vertex="1" parent="1">
                    <mxGeometry x="1180" y="435" width="120" height="60" as="geometry"/>
                </mxCell>
                <mxCell id="28" style="edgeStyle=none;html=1;" edge="1" parent="1" source="26" target="29">
                    <mxGeometry relative="1" as="geometry">
                        <mxPoint x="1240" y="700" as="targetPoint"/>
                    </mxGeometry>
                </mxCell>
                <mxCell id="26" value="n3 = n1" style="whiteSpace=wrap;html=1;" vertex="1" parent="1">
                    <mxGeometry x="1180" y="540" width="120" height="60" as="geometry"/>
                </mxCell>
                <mxCell id="30" style="edgeStyle=none;html=1;" edge="1" parent="1" source="29" target="31">
                    <mxGeometry relative="1" as="geometry">
                        <mxPoint x="1240" y="780" as="targetPoint"/>
                    </mxGeometry>
                </mxCell>
                <mxCell id="29" value="n1 = n2" style="rounded=0;whiteSpace=wrap;html=1;" vertex="1" parent="1">
                    <mxGeometry x="1180" y="640" width="120" height="60" as="geometry"/>
                </mxCell>
                <mxCell id="37" style="edgeStyle=none;html=1;" edge="1" parent="1" source="31" target="36">
                    <mxGeometry relative="1" as="geometry"/>
                </mxCell>
                <mxCell id="31" value="n2 = n3" style="rounded=0;whiteSpace=wrap;html=1;" vertex="1" parent="1">
                    <mxGeometry x="1180" y="750" width="120" height="60" as="geometry"/>
                </mxCell>
                <mxCell id="32" value="end" style="ellipse;whiteSpace=wrap;html=1;" vertex="1" parent="1">
                    <mxGeometry x="1180" y="930" width="120" height="80" as="geometry"/>
                </mxCell>
                <mxCell id="34" value="end" style="ellipse;whiteSpace=wrap;html=1;" vertex="1" parent="1">
                    <mxGeometry x="350" y="920" width="120" height="80" as="geometry"/>
                </mxCell>
                <mxCell id="38" style="edgeStyle=none;html=1;entryX=0.5;entryY=0;entryDx=0;entryDy=0;" edge="1" parent="1" source="36" target="32">
                    <mxGeometry relative="1" as="geometry"/>
                </mxCell>
                <mxCell id="36" value="output : n1, n2&amp;nbsp;" style="shape=parallelogram;perimeter=parallelogramPerimeter;whiteSpace=wrap;html=1;fixedSize=1;" vertex="1" parent="1">
                    <mxGeometry x="1180" y="850" width="120" height="60" as="geometry"/>
                </mxCell>
                <mxCell id="43" style="edgeStyle=none;html=1;entryX=0.576;entryY=-0.016;entryDx=0;entryDy=0;entryPerimeter=0;" edge="1" parent="1" source="39" target="41">
                    <mxGeometry relative="1" as="geometry"/>
                </mxCell>
                <mxCell id="39" value="start" style="ellipse;whiteSpace=wrap;html=1;" vertex="1" parent="1">
                    <mxGeometry x="1960" y="150" width="120" height="80" as="geometry"/>
                </mxCell>
                <mxCell id="44" style="edgeStyle=none;html=1;" edge="1" parent="1" source="41" target="42">
                    <mxGeometry relative="1" as="geometry"/>
                </mxCell>
                <mxCell id="41" value="input&lt;br&gt;&quot;taban girin&quot;&lt;br&gt;taban&lt;span style=&quot;color: rgba(0, 0, 0, 0); font-family: monospace; font-size: 0px; text-align: start;&quot;&gt;%3CmxGraphModel%3E%3Croot%3E%3CmxCell%20id%3D%220%22%2F%3E%3CmxCell%20id%3D%221%22%20parent%3D%220%22%2F%3E%3CmxCell%20id%3D%222%22%20value%3D%22input%26lt%3Bbr%26gt%3B%26quot%3Benter%20a%20value%26quot%3B%26lt%3Bbr%26gt%3Bn1%22%20style%3D%22shape%3Dparallelogram%3Bperimeter%3DparallelogramPerimeter%3BwhiteSpace%3Dwrap%3Bhtml%3D1%3BfixedSize%3D1%3B%22%20vertex%3D%221%22%20parent%3D%221%22%3E%3CmxGeometry%20x%3D%221181%22%20y%3D%22420%22%20width%3D%22120%22%20height%3D%2260%22%20as%3D%22geometry%22%2F%3E%3C%2FmxCell%3E%3C%2Froot%3E%3C%2FmxGraphModel%3E&lt;/span&gt;" style="shape=parallelogram;perimeter=parallelogramPerimeter;whiteSpace=wrap;html=1;fixedSize=1;" vertex="1" parent="1">
                    <mxGeometry x="1950" y="280" width="120" height="60" as="geometry"/>
                </mxCell>
                <mxCell id="46" value="" style="edgeStyle=none;html=1;" edge="1" parent="1" source="42" target="45">
                    <mxGeometry relative="1" as="geometry"/>
                </mxCell>
                <mxCell id="42" value="input&lt;br&gt;&quot;us girin&quot;&lt;br&gt;us" style="shape=parallelogram;perimeter=parallelogramPerimeter;whiteSpace=wrap;html=1;fixedSize=1;" vertex="1" parent="1">
                    <mxGeometry x="1950" y="385" width="120" height="60" as="geometry"/>
                </mxCell>
                <mxCell id="50" value="" style="edgeStyle=none;html=1;" edge="1" parent="1" source="45">
                    <mxGeometry relative="1" as="geometry">
                        <mxPoint x="2010" y="655" as="targetPoint"/>
                    </mxGeometry>
                </mxCell>
                <mxCell id="45" value="x = 1" style="whiteSpace=wrap;html=1;" vertex="1" parent="1">
                    <mxGeometry x="1950" y="525" width="120" height="60" as="geometry"/>
                </mxCell>
                <mxCell id="76" style="edgeStyle=none;html=1;entryX=0.417;entryY=0;entryDx=0;entryDy=0;entryPerimeter=0;" edge="1" parent="1" source="63" target="73">
                    <mxGeometry relative="1" as="geometry"/>
                </mxCell>
                <mxCell id="82" value="" style="edgeStyle=none;html=1;" edge="1" parent="1" source="63" target="81">
                    <mxGeometry relative="1" as="geometry"/>
                </mxCell>
                <mxCell id="83" value="else" style="edgeLabel;html=1;align=center;verticalAlign=middle;resizable=0;points=[];" vertex="1" connectable="0" parent="82">
                    <mxGeometry x="-0.3365" y="1" relative="1" as="geometry">
                        <mxPoint as="offset"/>
                    </mxGeometry>
                </mxCell>
                <mxCell id="63" value="if x &amp;lt;= us" style="rhombus;whiteSpace=wrap;html=1;" vertex="1" parent="1">
                    <mxGeometry x="1970" y="760" width="80" height="80" as="geometry"/>
                </mxCell>
                <mxCell id="75" style="edgeStyle=none;html=1;" edge="1" parent="1" source="72" target="63">
                    <mxGeometry relative="1" as="geometry"/>
                </mxCell>
                <mxCell id="72" value="res = taban" style="rounded=0;whiteSpace=wrap;html=1;" vertex="1" parent="1">
                    <mxGeometry x="1950" y="650" width="120" height="60" as="geometry"/>
                </mxCell>
                <mxCell id="78" value="" style="edgeStyle=none;html=1;entryX=0.609;entryY=-0.049;entryDx=0;entryDy=0;entryPerimeter=0;" edge="1" parent="1" source="73" target="77">
                    <mxGeometry relative="1" as="geometry">
                        <mxPoint x="2020" y="1010" as="targetPoint"/>
                    </mxGeometry>
                </mxCell>
                <mxCell id="73" value="res = res* taban" style="rounded=0;whiteSpace=wrap;html=1;" vertex="1" parent="1">
                    <mxGeometry x="1960" y="880" width="120" height="60" as="geometry"/>
                </mxCell>
                <mxCell id="80" style="edgeStyle=none;html=1;entryX=1;entryY=0.5;entryDx=0;entryDy=0;exitX=0.993;exitY=0.334;exitDx=0;exitDy=0;exitPerimeter=0;" edge="1" parent="1" source="77" target="63">
                    <mxGeometry relative="1" as="geometry">
                        <mxPoint x="2250" y="820" as="targetPoint"/>
                        <mxPoint x="2080" y="1040" as="sourcePoint"/>
                        <Array as="points">
                            <mxPoint x="2280" y="1040"/>
                            <mxPoint x="2280" y="800"/>
                        </Array>
                    </mxGeometry>
                </mxCell>
                <mxCell id="77" value="x=+1" style="whiteSpace=wrap;html=1;rounded=0;" vertex="1" parent="1">
                    <mxGeometry x="1948" y="1020" width="120" height="60" as="geometry"/>
                </mxCell>
                <mxCell id="85" style="edgeStyle=none;html=1;entryX=0.5;entryY=0;entryDx=0;entryDy=0;" edge="1" parent="1" source="81" target="84">
                    <mxGeometry relative="1" as="geometry"/>
                </mxCell>
                <mxCell id="81" value="output res" style="shape=parallelogram;perimeter=parallelogramPerimeter;whiteSpace=wrap;html=1;fixedSize=1;" vertex="1" parent="1">
                    <mxGeometry x="1790" y="770" width="120" height="60" as="geometry"/>
                </mxCell>
                <mxCell id="84" value="end" style="ellipse;whiteSpace=wrap;html=1;" vertex="1" parent="1">
                    <mxGeometry x="1790" y="880" width="120" height="80" as="geometry"/>
                </mxCell>
            </root>
        </mxGraphModel>
    </diagram>
</mxfile>